# This file uses centimeters as units for non-parametric coordinates.

mtllib Treasure.mtl
g default
v -0.644840 -0.644840 0.644840
v 0.644840 -0.644840 0.644840
v -0.644840 0.644840 0.644840
v 0.644840 0.644840 0.644840
v -0.644840 0.644840 -0.644840
v 0.644840 0.644840 -0.644840
v -0.644840 -0.644840 -0.644840
v 0.644840 -0.644840 -0.644840
vt 0.375000 0.000000
vt 0.625000 0.000000
vt 0.375000 0.250000
vt 0.625000 0.250000
vt 0.375000 0.500000
vt 0.625000 0.500000
vt 0.375000 0.750000
vt 0.625000 0.750000
vt 0.375000 1.000000
vt 0.625000 1.000000
vt 0.875000 0.000000
vt 0.875000 0.250000
vt 0.125000 0.000000
vt 0.125000 0.250000
vn 0.000000 0.000000 1.000000
vn 0.000000 0.000000 1.000000
vn 0.000000 0.000000 1.000000
vn 0.000000 0.000000 1.000000
vn 0.000000 1.000000 0.000000
vn 0.000000 1.000000 0.000000
vn 0.000000 1.000000 0.000000
vn 0.000000 1.000000 0.000000
vn 0.000000 0.000000 -1.000000
vn 0.000000 0.000000 -1.000000
vn 0.000000 0.000000 -1.000000
vn 0.000000 0.000000 -1.000000
vn 0.000000 -1.000000 0.000000
vn 0.000000 -1.000000 0.000000
vn 0.000000 -1.000000 0.000000
vn 0.000000 -1.000000 0.000000
vn 1.000000 0.000000 0.000000
vn 1.000000 0.000000 0.000000
vn 1.000000 0.000000 0.000000
vn 1.000000 0.000000 0.000000
vn -1.000000 0.000000 0.000000
vn -1.000000 0.000000 0.000000
vn -1.000000 0.000000 0.000000
vn -1.000000 0.000000 0.000000
s off
g pCube1
usemtl initialShadingGroup
f 1/1/1 2/2/2 4/4/3 3/3/4
f 3/3/5 4/4/6 6/6/7 5/5/8
f 5/5/9 6/6/10 8/8/11 7/7/12
f 7/7/13 8/8/14 2/10/15 1/9/16
f 2/2/17 8/11/18 6/12/19 4/4/20
f 7/13/21 1/1/22 3/3/23 5/14/24
g default
v -1.497975 -0.644840 1.044636
v -1.206184 -0.644840 1.396448
v -1.497975 0.644840 1.044636
v -1.206184 0.644840 1.396448
v -0.505295 0.644840 0.221313
v -0.213504 0.644840 0.573125
v -0.505295 -0.644840 0.221313
v -0.213504 -0.644840 0.573125
vt 0.375000 0.000000
vt 0.625000 0.000000
vt 0.375000 0.250000
vt 0.625000 0.250000
vt 0.375000 0.500000
vt 0.625000 0.500000
vt 0.375000 0.750000
vt 0.625000 0.750000
vt 0.375000 1.000000
vt 0.625000 1.000000
vt 0.875000 0.000000
vt 0.875000 0.250000
vt 0.125000 0.000000
vt 0.125000 0.250000
vn -0.769711 0.000000 0.638393
vn -0.769711 0.000000 0.638393
vn -0.769711 0.000000 0.638393
vn -0.769711 0.000000 0.638393
vn 0.000000 1.000000 0.000000
vn 0.000000 1.000000 0.000000
vn 0.000000 1.000000 0.000000
vn 0.000000 1.000000 0.000000
vn 0.769711 0.000000 -0.638393
vn 0.769711 0.000000 -0.638393
vn 0.769711 0.000000 -0.638393
vn 0.769711 0.000000 -0.638393
vn 0.000000 -1.000000 0.000000
vn 0.000000 -1.000000 0.000000
vn 0.000000 -1.000000 0.000000
vn 0.000000 -1.000000 0.000000
vn 0.638393 0.000000 0.769711
vn 0.638393 0.000000 0.769711
vn 0.638393 0.000000 0.769711
vn 0.638393 0.000000 0.769711
vn -0.638393 0.000000 -0.769711
vn -0.638393 0.000000 -0.769711
vn -0.638393 0.000000 -0.769711
vn -0.638393 0.000000 -0.769711
s off
g pCube2
usemtl initialShadingGroup
f 9/15/25 10/16/26 12/18/27 11/17/28
f 11/17/29 12/18/30 14/20/31 13/19/32
f 13/19/33 14/20/34 16/22/35 15/21/36
f 15/21/37 16/22/38 10/24/39 9/23/40
f 10/16/41 16/25/42 14/26/43 12/18/44
f 15/27/45 9/15/46 11/17/47 13/28/48
